HIERARCHY
ROOT Hips
{
	OFFSET -3.958830 18.904000 13.208200
	CHANNELS 6 Xposition Yposition Zposition Zrotation Yrotation Xrotation 
	JOINT LHipJoint
	{
		OFFSET 0.000000 0.000000 0.000000
		CHANNELS 3 Zrotation Yrotation Xrotation
		JOINT LeftUpLeg
		{
			OFFSET 1.800000 -1.400000 0.085000
			CHANNELS 3 Zrotation Yrotation Xrotation
			JOINT LeftLeg
			{
				OFFSET 2.215000 -6.000000 0.000000
				CHANNELS 3 Zrotation Yrotation Xrotation
				JOINT LeftFoot
				{
					OFFSET 2.500000 -6.900000 0.000000
					CHANNELS 3 Zrotation Yrotation Xrotation
					JOINT LeftToeBase
					{
						OFFSET 0.200000 -0.500000 1.950000
						CHANNELS 3 Zrotation Yrotation Xrotation
						End Site
						{
							OFFSET 0.000000 0.000000 0.000000
						}
					}
				}
			}
		}
	}
	JOINT RHipJoint
	{
		OFFSET 0.000000 0.000000 0.000000
		CHANNELS 3 Zrotation Yrotation Xrotation
		JOINT RightUpLeg
		{
			OFFSET -1.800000 -1.400000 0.085000
			CHANNELS 3 Zrotation Yrotation Xrotation
			JOINT RightLeg
			{
				OFFSET -2.215000 -6.000000 0.000000
				CHANNELS 3 Zrotation Yrotation Xrotation
				JOINT RightFoot
				{
					OFFSET -2.500000 -6.900000 0.000000
					CHANNELS 3 Zrotation Yrotation Xrotation
					JOINT RightToeBase
					{
						OFFSET -0.200000 -0.500000 1.950000
						CHANNELS 3 Zrotation Yrotation Xrotation
						End Site
						{
							OFFSET 0.000000 0.000000 0.000000
						}
					}
				}
			}
		}
	}
	JOINT LowerBack
	{
		OFFSET 0.000000 0.000000 0.000000
		CHANNELS 3 Zrotation Yrotation Xrotation
		JOINT Spine
		{
			OFFSET -0.087000 1.940000 -0.288900
			CHANNELS 3 Zrotation Yrotation Xrotation
			JOINT Spine1
			{
				OFFSET 0.000000 1.950000 0.060000
				CHANNELS 3 Zrotation Yrotation Xrotation
				JOINT Neck
				{
					OFFSET 0.000000 0.000000 0.000000
					CHANNELS 3 Zrotation Yrotation Xrotation
					JOINT Neck1
					{
						OFFSET 0.000000 1.600000 0.340000
						CHANNELS 3 Zrotation Yrotation Xrotation
						JOINT Head
						{
							OFFSET 0.000000 1.667000 -0.240000
							CHANNELS 3 Zrotation Yrotation Xrotation
							End Site
							{
								OFFSET 0.000000 0.000000 0.000000
							}
						}
					}
				}
				JOINT LeftShoulder
				{
					OFFSET 0.000000 0.000000 0.000000
					CHANNELS 3 Zrotation Yrotation Xrotation
					JOINT LeftArm
					{
						OFFSET 2.700000 1.550000 -0.730000
						CHANNELS 3 Zrotation Yrotation Xrotation
						JOINT LeftForeArm
						{
							OFFSET 5.450000 0.000000 0.000000
							CHANNELS 3 Zrotation Yrotation Xrotation
							JOINT LeftHand
							{
								OFFSET 3.450000 0.000000 0.000000
								CHANNELS 3 Zrotation Yrotation Xrotation
								JOINT LeftHandIndex1
								{
									OFFSET 0.750000 0.000000 0.000000
									CHANNELS 3 Zrotation Yrotation Xrotation
									End Site
									{
										OFFSET 0.000000 0.000000 0.000000
									}
								}
							}
						}
					}
				}
				JOINT RightShoulder
				{
					OFFSET 0.000000 0.000000 0.000000
					CHANNELS 3 Zrotation Yrotation Xrotation
					JOINT RightArm
					{
						OFFSET -2.700000 1.550000 -0.730000
						CHANNELS 3 Zrotation Yrotation Xrotation
						JOINT RightForeArm
						{
							OFFSET -5.450000 0.000000 0.000000
							CHANNELS 3 Zrotation Yrotation Xrotation
							JOINT RightHand
							{
								OFFSET -3.450000 0.000000 0.000000
								CHANNELS 3 Zrotation Yrotation Xrotation
								JOINT RightHandIndex1
								{
									OFFSET -0.750000 0.000000 0.000000
									CHANNELS 3 Zrotation Yrotation Xrotation
									End Site
									{
										OFFSET 0.000000 0.000000 0.000000
									}
								}
							}
						}
					}
				}
			}
		}
	}
}
MOTION
Frames: 8
Frame Time: 0.016667
1.483110 16.890650 1.169570 -2.340531 11.777725 8.518993 -15.322724 13.182135 2.494145 5.943279 -2.447644 0.876758 -12.586613 9.441383 18.427326 0.197787 6.860430 2.749004 0.006780 -0.426810 -0.125840 18.472251 -8.850155 3.716344 13.093133 6.391957 -30.969885 9.563541 -2.253669 2.054253 0.472459 -1.839901 4.095792 -0.055730 0.983120 0.248000 -3.757369 -4.019317 -7.225270 14.879424 -8.543415 5.003591 -9.194843 -7.601525 6.517151 -0.781814 -3.847955 -6.483430 -9.959928 1.682386 27.366183 -2.700290 -0.323380 11.175260 1.697006 6.402349 0.843275 -35.355862 -23.847159 5.725127 26.150648 -71.360451 -18.237280 -4.039893 3.154228 -0.048700 0.719600 -0.663260 0.349740 -0.703949 -9.135227 2.589922 47.625222 -12.833905 -10.150665 4.550268 4.378429 -1.476416 2.246390 -1.380533 -0.375020 0.262700 0.143940 -0.033650 
1.494240 16.864010 1.255080 -2.176605 11.017311 8.466761 -15.335757 13.223937 2.522975 6.175785 -2.773560 0.570406 -13.007231 9.933579 20.134316 0.240162 7.134341 2.652533 -0.062630 -0.521240 -0.165980 18.452735 -8.823830 3.720959 13.410129 6.459588 -30.699617 8.819874 -2.292917 2.766165 0.511982 -1.831390 4.112232 -0.107340 1.008450 0.243770 -3.702658 -4.150790 -7.265268 14.486510 -8.449184 5.264412 -8.541419 -7.536409 5.916311 -0.750397 -3.905271 -6.743337 -10.055452 1.969268 27.277158 -2.816240 0.071880 12.387780 1.206942 5.868421 1.016398 -35.050808 -22.978026 5.300780 20.277365 -69.756734 -13.984092 -4.099966 3.232755 -0.049490 0.739980 -0.701760 0.319450 -0.188212 -8.414336 2.787195 47.357427 -12.842632 -10.110793 3.400496 4.613196 -1.394522 2.252392 -1.369719 -0.398500 0.249870 0.192190 -0.047250 
1.489760 16.839180 1.379450 -1.497946 10.360537 8.572212 -15.371411 13.278943 2.565816 6.580156 -3.401749 -0.613309 -13.457065 10.607505 23.037318 0.245252 7.543858 2.502773 -0.075270 -0.540260 -0.170090 18.402989 -8.807903 3.683473 12.846893 6.370163 -30.755775 8.804407 -2.505919 4.188476 0.520583 -1.868619 4.097391 -0.092260 1.038030 0.235590 -3.571792 -4.326835 -7.268364 12.959200 -8.402197 5.571450 -7.503276 -7.562773 5.137515 -0.956023 -3.983890 -6.390357 -10.014589 2.272999 26.468938 -2.884700 0.281070 11.655460 0.361808 6.149029 0.528072 -34.957186 -22.820914 5.397688 11.221568 -66.121422 -7.493501 -4.168746 3.298571 -0.032430 0.757440 -0.719760 0.311360 1.197362 -8.392772 2.606769 46.381033 -12.567324 -9.732610 3.165025 5.022757 -1.395819 2.214795 -1.355184 -0.438100 0.289860 0.219080 -0.062480 
1.483070 16.818420 1.510380 -0.493848 9.249057 8.868164 -15.414593 13.332414 2.657761 6.706305 -4.269895 -2.835673 -13.708834 11.455328 27.268772 0.403636 7.994027 2.336288 -0.072130 -0.507060 -0.214860 18.334969 -8.802418 3.649061 11.840876 6.306784 -31.452232 9.089115 -2.876068 6.634659 0.514526 -1.949067 4.058057 -0.095630 1.047780 0.245050 -3.400114 -4.508459 -7.309767 10.734763 -8.026150 6.105889 -5.980018 -7.256496 4.222851 -1.294768 -4.053966 -6.391498 -9.959007 2.410933 25.705874 -2.010890 -0.111610 12.257020 -0.286042 6.117896 0.396473 -35.520772 -22.438386 5.089208 4.407757 -61.797635 -3.020607 -4.168419 3.416287 -0.082730 0.754410 -0.720490 0.340340 2.733726 -7.856730 2.649366 46.235813 -12.897529 -9.795821 2.718712 6.404054 -1.438266 2.232505 -1.418346 -0.394380 0.258790 0.198040 -0.014090 
1.481930 16.812970 1.646830 -0.232069 7.314128 8.705593 -15.424429 13.292007 2.809681 7.397789 -5.314435 -5.253354 -14.388366 12.658249 31.831980 0.542760 8.628100 2.075817 -0.025030 -0.456900 -0.145410 18.302486 -8.799448 3.640811 11.394656 6.412057 -31.447822 9.660195 -3.395365 9.132798 0.447272 -2.036787 4.012228 -0.094790 0.965600 0.235660 -3.319801 -4.532813 -7.464610 9.672540 -7.400098 7.444701 -5.001110 -6.538541 3.320748 -1.112208 -4.271457 -6.511611 -10.419459 2.488398 26.031694 -2.259130 0.318790 10.824370 -1.949356 5.617236 0.061892 -36.334543 -21.758532 4.292106 0.013064 -57.403674 -0.523291 -4.121910 3.378218 -0.027150 0.692170 -0.649220 0.332700 4.142940 -6.704188 2.999227 46.951081 -12.862650 -10.048395 2.142832 7.684710 -1.378253 2.237707 -1.401507 -0.370350 0.254160 0.158040 -0.034190 
1.472510 16.806230 1.789140 0.035677 4.408011 8.312039 -15.455681 13.187191 3.025477 7.780452 -6.436668 -7.812720 -15.062140 14.166286 36.989589 0.732822 9.466360 1.750855 0.016580 -0.438980 -0.092370 18.264839 -8.765503 3.628030 11.253831 6.658282 -31.427824 9.817811 -4.060467 12.786313 0.367895 -2.234886 3.900894 -0.107080 0.891460 0.246800 -3.192478 -4.523765 -7.633715 8.108220 -6.450575 8.666143 -3.507180 -5.476505 3.103372 -1.135213 -4.804638 -6.798133 -11.570252 3.161792 26.702727 -1.671090 0.474910 9.909560 -4.215272 4.880592 -0.203986 -37.244063 -20.213582 2.833375 -3.003665 -52.807551 0.698460 -4.078039 3.364113 0.035000 0.624110 -0.593850 0.318730 6.563562 -4.865593 3.717829 46.764382 -13.469613 -10.521535 2.152584 10.465562 -1.316626 2.212340 -1.422739 -0.344000 0.220350 0.139140 -0.054780 
1.454540 16.788290 1.915930 0.681658 1.492421 7.853462 -15.537351 13.007515 3.378773 8.021261 -8.048890 -11.384283 -15.424089 16.243824 44.193772 0.998741 10.681178 1.296518 0.061770 -0.412350 -0.003820 18.187040 -8.689228 3.594301 11.116362 6.864362 -31.147632 9.469048 -4.541728 15.955570 0.271668 -2.406309 3.788367 -0.118050 0.775980 0.252780 -2.935695 -4.523877 -7.910237 5.278915 -5.183601 10.434173 -1.705857 -4.187606 2.686427 -0.925876 -4.677274 -7.025832 -11.610738 3.217047 28.030901 -1.774960 0.920200 7.889150 -5.625593 4.109159 -0.315970 -38.263739 -18.741659 1.656672 -7.006862 -47.955999 2.063564 -4.026995 3.322432 0.127450 0.536340 -0.506460 0.277970 7.779845 -3.366596 4.134448 47.979981 -12.936697 -10.949334 2.248142 11.894571 -1.214963 2.214553 -1.390389 -0.319620 0.192140 0.122690 -0.098900 
1.440570 16.750030 2.008530 1.458470 -0.863067 7.724611 -15.657979 12.642023 3.940042 9.139868 -10.327602 -16.661532 -16.466893 19.487966 52.827381 1.377142 12.407760 0.709562 0.095220 -0.407360 0.087670 18.106113 -8.482794 3.519503 10.859253 7.189545 -31.547105 8.674304 -4.916806 19.223038 0.183936 -2.594854 3.660543 -0.131320 0.660060 0.270180 -2.630858 -4.529421 -8.272479 2.358527 -4.047286 12.568738 -0.009661 -3.078043 1.899267 -0.533478 -4.306932 -7.173608 -10.955502 2.950023 28.784838 -2.657700 1.723230 5.750860 -7.095967 3.314969 -0.419483 -39.494799 -17.270365 0.456008 -8.978640 -43.939874 2.310363 -3.995654 3.275199 0.219430 0.462680 -0.428260 0.225360 8.756733 -2.084876 4.423449 49.406141 -12.138269 -11.489294 3.357994 14.118323 -1.078303 2.194038 -1.372074 -0.304850 0.149960 0.117880 -0.157120 
